# xmcd CD database file
#
# Track frame offsets:
#	151
#	18843
#	35907
#	52501
#	66375
#	85416
#	104731
#	121666
#	141494
#	161436
#	178157
#	193040
#	213458
#	227076
#	249048
#	265710
#
# Disc length: 3832 seconds
#
# Revision: 1
# Processed by: cddbd v1.5.1PL2 Copyright (c) Steve Scherf et al.
# Submitted via: CDex 1.51
#
DISCID=dd0ef610
DTITLE=Chakra's Dream - Zen Meditation
DYEAR=1900
DGENRE=New Age
TTITLE0=Seat of Enlightenment
TTITLE1=Breath of Life
TTITLE2=The Evolution of Buddhism
TTITLE3=Pyramid Structure
TTITLE4=Deep Deep Breathing
TTITLE5=The Seiza Position
TTITLE6=Zazen
TTITLE7=Full Lotus
TTITLE8=Half Lotus
TTITLE9=Mantras
TTITLE10=The Study of Self
TTITLE11=The Burmese Position
TTITLE12=The Vital Force of Chi
TTITLE13=Random Thoughts
TTITLE14=Shikantanza
TTITLE15=The Cosmic Mudra
EXTD=
EXTT0=
EXTT1=
EXTT2=
EXTT3=
EXTT4=
EXTT5=
EXTT6=
EXTT7=
EXTT8=
EXTT9=
EXTT10=
EXTT11=
EXTT12=
EXTT13=
EXTT14=
EXTT15=
PLAYORDER=
